<?xml version="1.0" standalone="no"?><!DOCTYPE svg PUBLIC "-//W3C//DTD SVG 1.1//EN" "http://www.w3.org/Graphics/SVG/1.1/DTD/svg11.dtd"><svg t="1679881364987" class="icon" viewBox="0 0 1024 1024" version="1.1" xmlns="http://www.w3.org/2000/svg" p-id="6500" xmlns:xlink="http://www.w3.org/1999/xlink" width="200" height="200"><path d="M85.333333 938.666667H170.666667V512H85.333333v426.666667z m0-512H170.666667A85.333333 85.333333 0 0 1 256 512v512H0V512a85.333333 85.333333 0 0 1 85.333333-85.333333z m384 512h85.333334v-853.333334h-85.333334v853.333334z m0-938.666667h85.333334a85.333333 85.333333 0 0 1 85.333333 85.333333V1024h-256V85.333333a85.333333 85.333333 0 0 1 85.333333-85.333333zM853.333333 938.666667h85.333334V341.333333H853.333333v597.333334z m0-682.666667h85.333334A85.333333 85.333333 0 0 1 1024 341.333333v682.666667h-256V341.333333A85.333333 85.333333 0 0 1 853.333333 256z" fill="#1296db" p-id="6501"></path></svg>